<svg width="32" height="32" viewBox="0 0 32 32" fill="none" xmlns="http://www.w3.org/2000/svg">
  <!-- Фон -->
  <rect width="32" height="32" rx="6" fill="#2563eb"/>
  
  <!-- Кошелёк -->
  <path d="M8 12C8 10.8954 8.89543 10 10 10H22C23.1046 10 24 10.8954 24 12V20C24 21.1046 23.1046 22 22 22H10C8.89543 22 8 21.1046 8 20V12Z" fill="white"/>
  
  <!-- Ремешок кошелька -->
  <rect x="12" y="8" width="8" height="4" rx="2" fill="white"/>
  
  <!-- Деньги (монеты) -->
  <circle cx="14" cy="16" r="1.5" fill="#10b981"/>
  <circle cx="18" cy="16" r="1.5" fill="#10b981"/>
  <circle cx="16" cy="18" r="1.5" fill="#10b981"/>
  
  <!-- Знак рубля -->
  <path d="M16 14.5C16 14.2239 15.7761 14 15.5 14H14.5C14.2239 14 14 14.2239 14 14.5V15.5C14 15.7761 14.2239 16 14.5 16H15.5C15.7761 16 16 15.7761 16 15.5V14.5Z" fill="#2563eb"/>
  <path d="M16 16.5C16 16.2239 15.7761 16 15.5 16H14.5C14.2239 16 14 16.2239 14 17.5V17.5C14 17.7761 14.2239 18 14.5 18H15.5C15.7761 18 16 17.7761 16 17.5V16.5Z" fill="#2563eb"/>
</svg>
